<svg id="Icon_awesome-link" data-name="Icon awesome-link" xmlns="http://www.w3.org/2000/svg" width="20" height="20" viewBox="0 0 20 20">
  <path id="Icon_awesome-link-2" data-name="Icon awesome-link" d="M12.758,7.242a5.934,5.934,0,0,1,.014,8.382l-.014.014-2.625,2.625a5.937,5.937,0,0,1-8.4-8.4L3.186,8.417a.624.624,0,0,1,1.066.414,7.2,7.2,0,0,0,.379,2.059.629.629,0,0,1-.148.649l-.511.511a2.813,2.813,0,1,0,3.952,4l2.625-2.625a2.812,2.812,0,0,0,0-3.978,2.926,2.926,0,0,0-.4-.335.626.626,0,0,1-.271-.492A1.556,1.556,0,0,1,10.33,7.46l.822-.822a.628.628,0,0,1,.8-.068,5.956,5.956,0,0,1,.8.672Zm5.505-5.506a5.944,5.944,0,0,0-8.4,0L7.242,4.361l-.014.014a5.939,5.939,0,0,0,.816,9.054.628.628,0,0,0,.8-.068l.822-.822a1.556,1.556,0,0,0,.457-1.164.626.626,0,0,0-.271-.492,2.926,2.926,0,0,1-.4-.335,2.812,2.812,0,0,1,0-3.978l2.625-2.625a2.813,2.813,0,1,1,3.952,4l-.511.511a.629.629,0,0,0-.148.649,7.2,7.2,0,0,1,.379,2.059.624.624,0,0,0,1.066.414l1.449-1.449a5.944,5.944,0,0,0,0-8.4Z" transform="translate(0 0)"/>
</svg>
