<svg id="Icon_awesome-sticky-note" data-name="Icon awesome-sticky-note" xmlns="http://www.w3.org/2000/svg" width="21" height="21" viewBox="0 0 21 21">
  <path id="Icon_awesome-sticky-note-2" data-name="Icon awesome-sticky-note" d="M14.625,15H21V2.625A1.122,1.122,0,0,0,19.875,1.5H1.125A1.122,1.122,0,0,0,0,2.625v18.75A1.122,1.122,0,0,0,1.125,22.5H13.5V16.125A1.128,1.128,0,0,1,14.625,15Zm6.047,2.578-4.594,4.594a1.124,1.124,0,0,1-.8.328H15v-6h6v.286A1.121,1.121,0,0,1,20.672,17.578Z" transform="translate(0 -1.5)"/>
</svg>
