<?xml version="1.0" encoding="iso-8859-1"?>
<!-- Generator: Adobe Illustrator 16.0.0, SVG Export Plug-In . SVG Version: 6.00 Build 0)  -->
<!DOCTYPE svg PUBLIC "-//W3C//DTD SVG 1.1//EN" "http://www.w3.org/Graphics/SVG/1.1/DTD/svg11.dtd">
<svg version="1.1" id="Capa_1" xmlns="http://www.w3.org/2000/svg" xmlns:xlink="http://www.w3.org/1999/xlink" x="0px" y="0px"
	 width="95.469px" height="95.469px" viewBox="0 0 95.469 95.469" style="enable-background:new 0 0 95.469 95.469;"
	 xml:space="preserve">
<g>
	<g>
		<rect x="71.875" y="66.208" width="5.486" height="14.061"/>
		<circle cx="74.619" cy="61.311" r="3.217"/>
		<path d="M74.457,48.639c-6.041,0-11.475,2.579-15.311,6.672l-1.068-0.492l-4.947-4.17l-8.502,8.455l-8.523-8.455l-4.947,4.17
			L20.86,59.561c-1.523,0.625-2.875,1.707-3.781,3.228L0,87.296l63.133,0.028c3.273,2.104,7.154,3.339,11.324,3.339
			c11.586,0,21.012-9.427,21.012-21.013C95.468,58.065,86.043,48.639,74.457,48.639z M74.457,84.438
			c-8.154,0-14.787-6.634-14.787-14.787c0-8.152,6.633-14.785,14.787-14.785c8.152,0,14.785,6.633,14.785,14.785
			C89.242,77.804,82.609,84.438,74.457,84.438z"/>
		<path d="M44.562,51.667v0.003c0.008,0,0.02-0.002,0.029-0.002c0.004,0,0.012,0.002,0.02,0.002c0,0,0.004,0,0.006,0
			c0.004,0,0.006,0,0.008,0c0.006,0,0.014-0.002,0.02-0.002c0.01,0,0.02,0.002,0.029,0.002v-0.003
			c12.004,0.183,19.301-10.324,19.49-27.646C64.285,12.004,56.832,5.133,44.695,4.81V4.805c-0.02,0-0.033,0.001-0.051,0.001V4.805
			c-0.012,0-0.02,0-0.027,0.001c-0.008-0.001-0.018-0.001-0.025-0.001v0.001c-0.02,0-0.033-0.001-0.049-0.001V4.81
			c-12.139,0.324-19.592,7.195-19.471,19.212C25.259,41.343,32.556,51.85,44.562,51.667z"/>
	</g>
</g>
<g>
</g>
<g>
</g>
<g>
</g>
<g>
</g>
<g>
</g>
<g>
</g>
<g>
</g>
<g>
</g>
<g>
</g>
<g>
</g>
<g>
</g>
<g>
</g>
<g>
</g>
<g>
</g>
<g>
</g>
</svg>
